# MagicaVoxel @ Ephtracy

# group
o 

# material
mtllib dwarf-helmet-0.mtl
usemtl palette

# normals
vn -1 0 0
vn 1 0 0
vn 0 0 1
vn 0 0 -1
vn 0 -1 0
vn 0 1 0

# texcoords
vt 0.00195313 0.5
vt 0.00976563 0.5
vt 0.0136719 0.5
vt 0.0175781 0.5
vt 0.0214844 0.5
vt 0.0253906 0.5
vt 0.0292969 0.5

# verts
v -0.4 1 0
v -0.4 1 -0.1
v -0.4 1.2 0
v -0.4 1.2 -0.1
v -0.2 0.8 0.1
v -0.2 0.8 0
v -0.2 0.8 -0.1
v -0.2 0.9 0.1
v -0.2 0.9 0
v -0.2 0.9 -0.1
v -0.2 1 0
v -0.2 1 -0.2
v -0.2 1.2 0
v -0.2 1.2 -0.2
v -0.2 1.3 0
v -0.2 1.3 -0.1
v -0.2 1.4 0
v -0.2 1.4 -0.1
v -0.2 1.5 0
v -0.2 1.5 -0.2
v -0.1 1.1 0.1
v -0.1 1.1 0
v -0.1 1.2 0
v -0.1 1.3 0.1
v -0.1 1.3 0
v 0.1 0.8 0.1
v 0.1 0.8 0
v 0.1 0.8 -0.1
v 0.1 0.9 0.1
v 0.1 0.9 0
v 0.1 0.9 -0.1
v 0.3 1 0
v 0.3 1 -0.1
v 0.3 1.2 0
v 0.3 1.2 -0.1
v -0.3 1 0
v -0.3 1 -0.1
v -0.3 1.2 0
v -0.3 1.2 -0.1
v -0.1 0.8 0.1
v -0.1 0.8 0
v -0.1 0.8 -0.1
v -0.1 0.9 0.1
v -0.1 0.9 0
v -0.1 0.9 -0.1
v 0.1 1.1 0.1
v 0.1 1.1 0
v 0.1 1.2 0
v 0.1 1.3 0.1
v 0.1 1.3 0
v 0.2 0.8 0.1
v 0.2 0.8 0
v 0.2 0.8 -0.1
v 0.2 0.9 0.1
v 0.2 0.9 0
v 0.2 0.9 -0.1
v 0.2 1 0
v 0.2 1 -0.2
v 0.2 1.2 0
v 0.2 1.2 -0.2
v 0.2 1.3 0
v 0.2 1.3 -0.1
v 0.2 1.4 0
v 0.2 1.4 -0.1
v 0.2 1.5 0
v 0.2 1.5 -0.2
v 0.4 1 0
v 0.4 1 -0.1
v 0.4 1.2 0
v 0.4 1.2 -0.1
v -0.2 0.8 0.1
v -0.2 0.9 0.1
v -0.1 0.8 0.1
v -0.1 0.9 0.1
v -0.1 1.1 0.1
v -0.1 1.3 0.1
v 0.1 0.8 0.1
v 0.1 0.9 0.1
v 0.1 1.1 0.1
v 0.1 1.3 0.1
v 0.2 0.8 0.1
v 0.2 0.9 0.1
v -0.4 1 0
v -0.4 1.2 0
v -0.3 1 0
v -0.3 1.2 0
v -0.2 1 0
v -0.2 1.2 0
v -0.2 1.3 0
v -0.2 1.4 0
v -0.2 1.5 0
v -0.1 1 0
v -0.1 1.1 0
v -0.1 1.2 0
v -0.1 1.3 0
v -0.1 1.4 0
v 0.1 1 0
v 0.1 1.1 0
v 0.1 1.2 0
v 0.1 1.3 0
v 0.1 1.4 0
v 0.2 1 0
v 0.2 1.2 0
v 0.2 1.3 0
v 0.2 1.4 0
v 0.2 1.5 0
v 0.3 1 0
v 0.3 1.2 0
v 0.4 1 0
v 0.4 1.2 0
v -0.4 1 -0.1
v -0.4 1.2 -0.1
v -0.3 1 -0.1
v -0.3 1.2 -0.1
v -0.2 0.8 -0.1
v -0.2 0.9 -0.1
v -0.1 0.8 -0.1
v -0.1 0.9 -0.1
v 0.1 0.8 -0.1
v 0.1 0.9 -0.1
v 0.2 0.8 -0.1
v 0.2 0.9 -0.1
v 0.3 1 -0.1
v 0.3 1.2 -0.1
v 0.4 1 -0.1
v 0.4 1.2 -0.1
v -0.2 1 -0.2
v -0.2 1.2 -0.2
v -0.2 1.5 -0.2
v 0.2 1 -0.2
v 0.2 1.2 -0.2
v 0.2 1.5 -0.2
v -0.2 0.8 0.1
v -0.1 0.8 0.1
v 0.1 0.8 0.1
v 0.2 0.8 0.1
v -0.2 0.8 0
v -0.1 0.8 0
v 0.1 0.8 0
v 0.2 0.8 0
v -0.2 0.8 -0.1
v -0.1 0.8 -0.1
v 0.1 0.8 -0.1
v 0.2 0.8 -0.1
v -0.4 1 0
v -0.3 1 0
v -0.2 1 0
v -0.1 1 0
v 0.1 1 0
v 0.2 1 0
v 0.3 1 0
v 0.4 1 0
v -0.4 1 -0.1
v -0.3 1 -0.1
v -0.1 1 -0.1
v 0.1 1 -0.1
v 0.3 1 -0.1
v 0.4 1 -0.1
v -0.2 1 -0.2
v 0.2 1 -0.2
v -0.1 1.1 0.1
v 0.1 1.1 0.1
v -0.1 1.1 0
v 0.1 1.1 0
v -0.2 0.9 0.1
v -0.1 0.9 0.1
v 0.1 0.9 0.1
v 0.2 0.9 0.1
v -0.2 0.9 0
v -0.1 0.9 0
v 0.1 0.9 0
v 0.2 0.9 0
v -0.2 0.9 -0.1
v -0.1 0.9 -0.1
v 0.1 0.9 -0.1
v 0.2 0.9 -0.1
v -0.4 1.2 0
v -0.3 1.2 0
v 0.3 1.2 0
v 0.4 1.2 0
v -0.4 1.2 -0.1
v -0.3 1.2 -0.1
v 0.3 1.2 -0.1
v 0.4 1.2 -0.1
v -0.1 1.3 0.1
v 0.1 1.3 0.1
v -0.1 1.3 0
v 0.1 1.3 0
v -0.2 1.5 0
v 0.2 1.5 0
v -0.2 1.5 -0.2
v 0.2 1.5 -0.2

# faces
f 3/2/1 2/2/1 1/2/1
f 4/2/1 2/2/1 3/2/1
f 8/7/1 6/7/1 5/7/1
f 9/6/1 7/6/1 6/6/1
f 9/7/1 6/7/1 8/7/1
f 10/6/1 7/6/1 9/6/1
f 13/4/1 12/4/1 11/4/1
f 14/4/1 12/4/1 13/4/1
f 15/3/1 14/3/1 13/3/1
f 16/3/1 14/3/1 15/3/1
f 17/1/1 16/1/1 15/1/1
f 18/3/1 14/3/1 16/3/1
f 18/1/1 16/1/1 17/1/1
f 19/3/1 18/3/1 17/3/1
f 20/3/1 14/3/1 18/3/1
f 20/3/1 18/3/1 19/3/1
f 23/6/1 22/6/1 21/6/1
f 24/6/1 23/6/1 21/6/1
f 25/6/1 23/6/1 24/6/1
f 29/7/1 27/7/1 26/7/1
f 30/6/1 28/6/1 27/6/1
f 30/7/1 27/7/1 29/7/1
f 31/6/1 28/6/1 30/6/1
f 34/2/1 33/2/1 32/2/1
f 35/2/1 33/2/1 34/2/1
f 36/2/2 37/2/2 38/2/2
f 38/2/2 37/2/2 39/2/2
f 40/7/2 41/7/2 43/7/2
f 41/6/2 42/6/2 44/6/2
f 43/7/2 41/7/2 44/7/2
f 44/6/2 42/6/2 45/6/2
f 46/6/2 47/6/2 48/6/2
f 46/6/2 48/6/2 49/6/2
f 49/6/2 48/6/2 50/6/2
f 51/7/2 52/7/2 54/7/2
f 52/6/2 53/6/2 55/6/2
f 54/7/2 52/7/2 55/7/2
f 55/6/2 53/6/2 56/6/2
f 57/4/2 58/4/2 59/4/2
f 59/4/2 58/4/2 60/4/2
f 59/3/2 60/3/2 61/3/2
f 61/3/2 60/3/2 62/3/2
f 61/1/2 62/1/2 63/1/2
f 62/3/2 60/3/2 64/3/2
f 63/1/2 62/1/2 64/1/2
f 63/3/2 64/3/2 65/3/2
f 64/3/2 60/3/2 66/3/2
f 65/3/2 64/3/2 66/3/2
f 67/2/2 68/2/2 69/2/2
f 69/2/2 68/2/2 70/2/2
f 73/7/3 72/7/3 71/7/3
f 74/7/3 72/7/3 73/7/3
f 79/6/3 76/6/3 75/6/3
f 80/6/3 76/6/3 79/6/3
f 81/7/3 78/7/3 77/7/3
f 82/7/3 78/7/3 81/7/3
f 85/2/3 84/2/3 83/2/3
f 86/2/3 84/2/3 85/2/3
f 92/4/3 88/4/3 87/4/3
f 93/4/3 88/4/3 92/4/3
f 94/3/3 89/3/3 88/3/3
f 94/4/3 88/4/3 93/4/3
f 95/1/3 90/1/3 89/1/3
f 95/3/3 89/3/3 94/3/3
f 96/3/3 91/3/3 90/3/3
f 96/1/3 90/1/3 95/1/3
f 97/5/3 93/5/3 92/5/3
f 98/5/3 93/5/3 97/5/3
f 100/3/3 96/3/3 95/3/3
f 101/3/3 91/3/3 96/3/3
f 101/3/3 96/3/3 100/3/3
f 102/4/3 99/4/3 98/4/3
f 102/4/3 98/4/3 97/4/3
f 103/3/3 100/3/3 99/3/3
f 103/4/3 99/4/3 102/4/3
f 104/1/3 101/1/3 100/1/3
f 104/3/3 100/3/3 103/3/3
f 105/3/3 91/3/3 101/3/3
f 105/1/3 101/1/3 104/1/3
f 106/3/3 91/3/3 105/3/3
f 109/2/3 108/2/3 107/2/3
f 110/2/3 108/2/3 109/2/3
f 111/2/4 112/2/4 113/2/4
f 113/2/4 112/2/4 114/2/4
f 115/6/4 116/6/4 117/6/4
f 117/6/4 116/6/4 118/6/4
f 119/6/4 120/6/4 121/6/4
f 121/6/4 120/6/4 122/6/4
f 123/2/4 124/2/4 125/2/4
f 125/2/4 124/2/4 126/2/4
f 127/4/4 128/4/4 130/4/4
f 128/3/4 129/3/4 131/3/4
f 130/4/4 128/4/4 131/4/4
f 131/3/4 129/3/4 132/3/4
f 137/7/5 134/7/5 133/7/5
f 138/7/5 134/7/5 137/7/5
f 139/7/5 136/7/5 135/7/5
f 140/7/5 136/7/5 139/7/5
f 141/6/5 138/6/5 137/6/5
f 142/6/5 138/6/5 141/6/5
f 143/6/5 140/6/5 139/6/5
f 144/6/5 140/6/5 143/6/5
f 153/2/5 146/2/5 145/2/5
f 154/2/5 146/2/5 153/2/5
f 155/4/5 148/4/5 147/4/5
f 155/5/5 149/5/5 148/5/5
f 156/4/5 150/4/5 149/4/5
f 156/5/5 149/5/5 155/5/5
f 157/2/5 152/2/5 151/2/5
f 158/2/5 152/2/5 157/2/5
f 159/4/5 155/4/5 147/4/5
f 159/4/5 156/4/5 155/4/5
f 160/4/5 150/4/5 156/4/5
f 160/4/5 156/4/5 159/4/5
f 163/6/5 162/6/5 161/6/5
f 164/6/5 162/6/5 163/6/5
f 165/7/6 166/7/6 169/7/6
f 169/7/6 166/7/6 170/7/6
f 167/7/6 168/7/6 171/7/6
f 171/7/6 168/7/6 172/7/6
f 169/6/6 170/6/6 173/6/6
f 173/6/6 170/6/6 174/6/6
f 171/6/6 172/6/6 175/6/6
f 175/6/6 172/6/6 176/6/6
f 177/2/6 178/2/6 181/2/6
f 181/2/6 178/2/6 182/2/6
f 179/2/6 180/2/6 183/2/6
f 183/2/6 180/2/6 184/2/6
f 185/6/6 186/6/6 187/6/6
f 187/6/6 186/6/6 188/6/6
f 189/3/6 190/3/6 191/3/6
f 191/3/6 190/3/6 192/3/6
