# MagicaVoxel @ Ephtracy

# group
o 

# material
mtllib dwarf-helmet-2.mtl
usemtl palette

# normals
vn -1 0 0
vn 1 0 0
vn 0 0 1
vn 0 0 -1
vn 0 -1 0
vn 0 1 0

# texcoords
vt 0.00195313 0.5
vt 0.00585938 0.5
vt 0.00976563 0.5
vt 0.0136719 0.5
vt 0.0175781 0.5
vt 0.0214844 0.5
vt 0.0253906 0.5
vt 0.0292969 0.5
vt 0.0332031 0.5

# verts
v 0.6 0.1 0
v 0.6 0.1 -0.1
v 0.6 0.3 0
v 0.6 0.3 -0.1
v 0.7 0 0.1
v 0.7 0 0
v 0.7 0 -0.1
v 0.7 0.1 0.1
v 0.7 0.1 0
v 0.7 0.1 -0.1
v 0.7 0.1 -0.2
v 0.7 0.3 0
v 0.7 0.3 -0.1
v 0.7 0.3 -0.2
v 0.7 0.4 0
v 0.7 0.4 -0.1
v 0.7 0.5 0
v 0.7 0.5 -0.1
v 0.7 0.5 -0.2
v 0.7 0.6 0
v 0.7 0.6 -0.2
v 0.8 0.1 -0.2
v 0.8 0.1 -0.3
v 0.8 0.2 0.1
v 0.8 0.2 0
v 0.8 0.3 0
v 0.8 0.3 -0.2
v 0.8 0.4 0.1
v 0.8 0.4 0
v 0.8 0.4 -0.2
v 0.8 0.4 -0.3
v 1 0 0.1
v 1 0 0
v 1 0 -0.1
v 1 0.1 0.1
v 1 0.1 0
v 1 0.1 -0.1
v 0.8 0 0.1
v 0.8 0 0
v 0.8 0 -0.1
v 0.8 0.1 0.1
v 0.8 0.1 0
v 0.8 0.1 -0.1
v 1 0.1 -0.2
v 1 0.1 -0.3
v 1 0.2 0.1
v 1 0.2 0
v 1 0.3 0
v 1 0.3 -0.2
v 1 0.4 0.1
v 1 0.4 0
v 1 0.4 -0.2
v 1 0.4 -0.3
v 1.1 0 0.1
v 1.1 0 0
v 1.1 0 -0.1
v 1.1 0.1 0.1
v 1.1 0.1 0
v 1.1 0.1 -0.1
v 1.1 0.1 -0.2
v 1.1 0.3 0
v 1.1 0.3 -0.1
v 1.1 0.3 -0.2
v 1.1 0.4 0
v 1.1 0.4 -0.1
v 1.1 0.5 0
v 1.1 0.5 -0.1
v 1.1 0.5 -0.2
v 1.1 0.6 0
v 1.1 0.6 -0.2
v 1.2 0.1 0
v 1.2 0.1 -0.1
v 1.2 0.3 0
v 1.2 0.3 -0.1
v 0.7 0 0.1
v 0.7 0.1 0.1
v 0.8 0 0.1
v 0.8 0.1 0.1
v 0.8 0.2 0.1
v 0.8 0.4 0.1
v 1 0 0.1
v 1 0.1 0.1
v 1 0.2 0.1
v 1 0.4 0.1
v 1.1 0 0.1
v 1.1 0.1 0.1
v 0.6 0.1 0
v 0.6 0.3 0
v 0.7 0.1 0
v 0.7 0.3 0
v 0.7 0.4 0
v 0.7 0.5 0
v 0.7 0.6 0
v 0.8 0.1 0
v 0.8 0.2 0
v 0.8 0.3 0
v 0.8 0.4 0
v 0.8 0.5 0
v 0.8 0.6 0
v 1 0.1 0
v 1 0.2 0
v 1 0.3 0
v 1 0.4 0
v 1 0.5 0
v 1 0.6 0
v 1.1 0.1 0
v 1.1 0.3 0
v 1.1 0.4 0
v 1.1 0.5 0
v 1.1 0.6 0
v 1.2 0.1 0
v 1.2 0.3 0
v 0.6 0.1 -0.1
v 0.6 0.3 -0.1
v 0.7 0 -0.1
v 0.7 0.1 -0.1
v 0.7 0.3 -0.1
v 0.8 0 -0.1
v 0.8 0.1 -0.1
v 1 0 -0.1
v 1 0.1 -0.1
v 1.1 0 -0.1
v 1.1 0.1 -0.1
v 1.1 0.3 -0.1
v 1.2 0.1 -0.1
v 1.2 0.3 -0.1
v 0.7 0.1 -0.2
v 0.7 0.3 -0.2
v 0.7 0.5 -0.2
v 0.7 0.6 -0.2
v 0.8 0.1 -0.2
v 0.8 0.3 -0.2
v 0.8 0.4 -0.2
v 1 0.1 -0.2
v 1 0.3 -0.2
v 1 0.4 -0.2
v 1.1 0.1 -0.2
v 1.1 0.3 -0.2
v 1.1 0.5 -0.2
v 1.1 0.6 -0.2
v 0.8 0.1 -0.3
v 0.8 0.4 -0.3
v 1 0.1 -0.3
v 1 0.4 -0.3
v 0.7 0 0.1
v 0.8 0 0.1
v 1 0 0.1
v 1.1 0 0.1
v 0.7 0 0
v 0.8 0 0
v 1 0 0
v 1.1 0 0
v 0.7 0 -0.1
v 0.8 0 -0.1
v 1 0 -0.1
v 1.1 0 -0.1
v 0.6 0.1 0
v 0.7 0.1 0
v 0.8 0.1 0
v 1 0.1 0
v 1.1 0.1 0
v 1.2 0.1 0
v 0.6 0.1 -0.1
v 0.7 0.1 -0.1
v 0.8 0.1 -0.1
v 1 0.1 -0.1
v 1.1 0.1 -0.1
v 1.2 0.1 -0.1
v 0.7 0.1 -0.2
v 0.8 0.1 -0.2
v 1 0.1 -0.2
v 1.1 0.1 -0.2
v 0.8 0.1 -0.3
v 1 0.1 -0.3
v 0.8 0.2 0.1
v 1 0.2 0.1
v 0.8 0.2 0
v 1 0.2 0
v 0.7 0.1 0.1
v 0.8 0.1 0.1
v 1 0.1 0.1
v 1.1 0.1 0.1
v 0.7 0.1 0
v 0.8 0.1 0
v 1 0.1 0
v 1.1 0.1 0
v 0.6 0.3 0
v 0.7 0.3 0
v 1.1 0.3 0
v 1.2 0.3 0
v 0.6 0.3 -0.1
v 0.7 0.3 -0.1
v 1.1 0.3 -0.1
v 1.2 0.3 -0.1
v 0.8 0.4 0.1
v 1 0.4 0.1
v 0.8 0.4 0
v 1 0.4 0
v 0.8 0.4 -0.2
v 1 0.4 -0.2
v 0.8 0.4 -0.3
v 1 0.4 -0.3
v 0.7 0.6 0
v 0.8 0.6 0
v 1 0.6 0
v 1.1 0.6 0
v 0.8 0.6 -0.1
v 1 0.6 -0.1
v 0.7 0.6 -0.2
v 1.1 0.6 -0.2

# faces
f 3/3/1 2/3/1 1/3/1
f 4/3/1 2/3/1 3/3/1
f 8/8/1 6/8/1 5/8/1
f 9/7/1 7/7/1 6/7/1
f 9/8/1 6/8/1 8/8/1
f 10/7/1 7/7/1 9/7/1
f 13/5/1 11/5/1 10/5/1
f 14/5/1 11/5/1 13/5/1
f 15/4/1 13/4/1 12/4/1
f 15/4/1 14/4/1 13/4/1
f 16/4/1 14/4/1 15/4/1
f 17/1/1 16/1/1 15/1/1
f 18/4/1 14/4/1 16/4/1
f 18/1/1 16/1/1 17/1/1
f 19/4/1 14/4/1 18/4/1
f 20/2/1 18/2/1 17/2/1
f 20/2/1 19/2/1 18/2/1
f 21/2/1 19/2/1 20/2/1
f 26/7/1 25/7/1 24/7/1
f 27/7/1 23/7/1 22/7/1
f 28/7/1 26/7/1 24/7/1
f 29/7/1 26/7/1 28/7/1
f 30/7/1 23/7/1 27/7/1
f 31/7/1 23/7/1 30/7/1
f 35/8/1 33/8/1 32/8/1
f 36/7/1 34/7/1 33/7/1
f 36/8/1 33/8/1 35/8/1
f 37/7/1 34/7/1 36/7/1
f 38/8/2 39/8/2 41/8/2
f 39/7/2 40/7/2 42/7/2
f 41/8/2 39/8/2 42/8/2
f 42/7/2 40/7/2 43/7/2
f 46/7/2 47/7/2 48/7/2
f 44/7/2 45/7/2 49/7/2
f 46/7/2 48/7/2 50/7/2
f 50/7/2 48/7/2 51/7/2
f 49/7/2 45/7/2 52/7/2
f 52/7/2 45/7/2 53/7/2
f 54/8/2 55/8/2 57/8/2
f 55/7/2 56/7/2 58/7/2
f 57/8/2 55/8/2 58/8/2
f 58/7/2 56/7/2 59/7/2
f 59/5/2 60/5/2 62/5/2
f 62/5/2 60/5/2 63/5/2
f 61/4/2 62/4/2 64/4/2
f 62/4/2 63/4/2 64/4/2
f 64/4/2 63/4/2 65/4/2
f 64/1/2 65/1/2 66/1/2
f 65/4/2 63/4/2 67/4/2
f 66/1/2 65/1/2 67/1/2
f 67/4/2 63/4/2 68/4/2
f 66/2/2 67/2/2 69/2/2
f 67/2/2 68/2/2 69/2/2
f 69/2/2 68/2/2 70/2/2
f 71/3/2 72/3/2 73/3/2
f 73/3/2 72/3/2 74/3/2
f 77/8/3 76/8/3 75/8/3
f 78/8/3 76/8/3 77/8/3
f 83/7/3 80/7/3 79/7/3
f 84/7/3 80/7/3 83/7/3
f 85/8/3 82/8/3 81/8/3
f 86/8/3 82/8/3 85/8/3
f 89/3/3 88/3/3 87/3/3
f 90/3/3 88/3/3 89/3/3
f 94/5/3 90/5/3 89/5/3
f 95/5/3 90/5/3 94/5/3
f 96/4/3 91/4/3 90/4/3
f 96/5/3 90/5/3 95/5/3
f 97/1/3 92/1/3 91/1/3
f 97/4/3 91/4/3 96/4/3
f 98/2/3 93/2/3 92/2/3
f 98/1/3 92/1/3 97/1/3
f 99/2/3 93/2/3 98/2/3
f 100/6/3 95/6/3 94/6/3
f 101/6/3 95/6/3 100/6/3
f 103/4/3 98/4/3 97/4/3
f 104/9/3 99/9/3 98/9/3
f 104/4/3 98/4/3 103/4/3
f 105/9/3 99/9/3 104/9/3
f 106/5/3 102/5/3 101/5/3
f 106/5/3 101/5/3 100/5/3
f 107/4/3 103/4/3 102/4/3
f 107/5/3 102/5/3 106/5/3
f 108/1/3 104/1/3 103/1/3
f 108/4/3 103/4/3 107/4/3
f 109/2/3 105/2/3 104/2/3
f 109/1/3 104/1/3 108/1/3
f 110/2/3 105/2/3 109/2/3
f 111/3/3 107/3/3 106/3/3
f 112/3/3 107/3/3 111/3/3
f 113/3/4 114/3/4 116/3/4
f 116/3/4 114/3/4 117/3/4
f 115/7/4 116/7/4 118/7/4
f 118/7/4 116/7/4 119/7/4
f 120/7/4 121/7/4 122/7/4
f 122/7/4 121/7/4 123/7/4
f 123/3/4 124/3/4 125/3/4
f 125/3/4 124/3/4 126/3/4
f 127/5/4 128/5/4 131/5/4
f 128/4/4 129/4/4 132/4/4
f 131/5/4 128/5/4 132/5/4
f 132/4/4 129/4/4 133/4/4
f 133/4/4 129/4/4 136/4/4
f 134/5/4 135/5/4 137/5/4
f 135/4/4 136/4/4 138/4/4
f 137/5/4 135/5/4 138/5/4
f 129/2/4 130/2/4 139/2/4
f 138/4/4 136/4/4 139/4/4
f 136/4/4 129/4/4 139/4/4
f 139/2/4 130/2/4 140/2/4
f 141/7/4 142/7/4 143/7/4
f 143/7/4 142/7/4 144/7/4
f 149/8/5 146/8/5 145/8/5
f 150/8/5 146/8/5 149/8/5
f 151/8/5 148/8/5 147/8/5
f 152/8/5 148/8/5 151/8/5
f 153/7/5 150/7/5 149/7/5
f 154/7/5 150/7/5 153/7/5
f 155/7/5 152/7/5 151/7/5
f 156/7/5 152/7/5 155/7/5
f 163/3/5 158/3/5 157/3/5
f 164/3/5 158/3/5 163/3/5
f 165/6/5 160/6/5 159/6/5
f 166/6/5 160/6/5 165/6/5
f 167/3/5 162/3/5 161/3/5
f 168/3/5 162/3/5 167/3/5
f 169/5/5 166/5/5 165/5/5
f 169/5/5 167/5/5 166/5/5
f 169/5/5 165/5/5 164/5/5
f 170/5/5 167/5/5 169/5/5
f 171/5/5 167/5/5 170/5/5
f 172/5/5 167/5/5 171/5/5
f 173/7/5 171/7/5 170/7/5
f 174/7/5 171/7/5 173/7/5
f 177/7/5 176/7/5 175/7/5
f 178/7/5 176/7/5 177/7/5
f 179/8/6 180/8/6 183/8/6
f 183/8/6 180/8/6 184/8/6
f 181/8/6 182/8/6 185/8/6
f 185/8/6 182/8/6 186/8/6
f 187/3/6 188/3/6 191/3/6
f 191/3/6 188/3/6 192/3/6
f 189/3/6 190/3/6 193/3/6
f 193/3/6 190/3/6 194/3/6
f 195/7/6 196/7/6 197/7/6
f 197/7/6 196/7/6 198/7/6
f 199/7/6 200/7/6 201/7/6
f 201/7/6 200/7/6 202/7/6
f 203/2/6 204/2/6 207/2/6
f 204/9/6 205/9/6 207/9/6
f 205/2/6 206/2/6 208/2/6
f 207/9/6 205/9/6 208/9/6
f 203/2/6 207/2/6 209/2/6
f 207/2/6 208/2/6 209/2/6
f 208/2/6 206/2/6 210/2/6
f 209/2/6 208/2/6 210/2/6
