# MagicaVoxel @ Ephtracy

# group
o 

# material
mtllib dwarf-3.mtl
usemtl palette

# normals
vn -1 0 0
vn 1 0 0
vn 0 0 1
vn 0 0 -1
vn 0 -1 0
vn 0 1 0

# texcoords
vt 0.00195313 0.5
vt 0.00976563 0.5
vt 0.0136719 0.5
vt 0.0175781 0.5
vt 0.0214844 0.5
vt 0.0253906 0.5
vt 0.0292969 0.5

# verts
v -0.3 0.1 0
v -0.3 0.1 -0.1
v -0.3 0.3 0
v -0.3 0.3 -0.1
v -0.2 0 0.1
v -0.2 0 0
v -0.2 0 -0.1
v -0.2 0.1 0.1
v -0.2 0.1 0
v -0.2 0.1 -0.1
v -0.2 0.1 -0.2
v -0.2 0.3 0
v -0.2 0.3 -0.1
v -0.2 0.3 -0.2
v -0.2 0.4 0
v -0.2 0.4 -0.1
v -0.2 0.5 0
v -0.2 0.5 -0.1
v -0.2 0.6 0
v -0.2 0.6 -0.2
v -0.1 0.2 0.1
v -0.1 0.2 0
v -0.1 0.3 0
v -0.1 0.4 0.1
v -0.1 0.4 0
v 0.1 0 0.1
v 0.1 0 0
v 0.1 0 -0.1
v 0.1 0.1 0.1
v 0.1 0.1 0
v 0.1 0.1 -0.1
v -0.1 0 0.1
v -0.1 0 0
v -0.1 0 -0.1
v -0.1 0.1 0.1
v -0.1 0.1 0
v -0.1 0.1 -0.1
v 0.1 0.2 0.1
v 0.1 0.2 0
v 0.1 0.3 0
v 0.1 0.4 0.1
v 0.1 0.4 0
v 0.2 0 0.1
v 0.2 0 0
v 0.2 0 -0.1
v 0.2 0.1 0.1
v 0.2 0.1 0
v 0.2 0.1 -0.1
v 0.2 0.1 -0.2
v 0.2 0.3 0
v 0.2 0.3 -0.1
v 0.2 0.3 -0.2
v 0.2 0.4 0
v 0.2 0.4 -0.1
v 0.2 0.5 0
v 0.2 0.5 -0.1
v 0.2 0.6 0
v 0.2 0.6 -0.2
v 0.3 0.1 0
v 0.3 0.1 -0.1
v 0.3 0.3 0
v 0.3 0.3 -0.1
v -0.2 0 0.1
v -0.2 0.1 0.1
v -0.1 0 0.1
v -0.1 0.1 0.1
v -0.1 0.2 0.1
v -0.1 0.4 0.1
v 0.1 0 0.1
v 0.1 0.1 0.1
v 0.1 0.2 0.1
v 0.1 0.4 0.1
v 0.2 0 0.1
v 0.2 0.1 0.1
v -0.3 0.1 0
v -0.3 0.3 0
v -0.2 0.1 0
v -0.2 0.3 0
v -0.2 0.4 0
v -0.2 0.5 0
v -0.2 0.6 0
v -0.1 0.1 0
v -0.1 0.2 0
v -0.1 0.3 0
v -0.1 0.4 0
v -0.1 0.5 0
v 0.1 0.1 0
v 0.1 0.2 0
v 0.1 0.3 0
v 0.1 0.4 0
v 0.1 0.5 0
v 0.2 0.1 0
v 0.2 0.3 0
v 0.2 0.4 0
v 0.2 0.5 0
v 0.2 0.6 0
v 0.3 0.1 0
v 0.3 0.3 0
v -0.3 0.1 -0.1
v -0.3 0.3 -0.1
v -0.2 0 -0.1
v -0.2 0.1 -0.1
v -0.2 0.3 -0.1
v -0.1 0 -0.1
v -0.1 0.1 -0.1
v 0.1 0 -0.1
v 0.1 0.1 -0.1
v 0.2 0 -0.1
v 0.2 0.1 -0.1
v 0.2 0.3 -0.1
v 0.3 0.1 -0.1
v 0.3 0.3 -0.1
v -0.2 0.1 -0.2
v -0.2 0.3 -0.2
v -0.2 0.6 -0.2
v 0.2 0.1 -0.2
v 0.2 0.3 -0.2
v 0.2 0.6 -0.2
v -0.2 0 0.1
v -0.1 0 0.1
v 0.1 0 0.1
v 0.2 0 0.1
v -0.2 0 0
v -0.1 0 0
v 0.1 0 0
v 0.2 0 0
v -0.2 0 -0.1
v -0.1 0 -0.1
v 0.1 0 -0.1
v 0.2 0 -0.1
v -0.3 0.1 0
v -0.2 0.1 0
v -0.1 0.1 0
v 0.1 0.1 0
v 0.2 0.1 0
v 0.3 0.1 0
v -0.3 0.1 -0.1
v -0.2 0.1 -0.1
v -0.1 0.1 -0.1
v 0.1 0.1 -0.1
v 0.2 0.1 -0.1
v 0.3 0.1 -0.1
v -0.2 0.1 -0.2
v 0.2 0.1 -0.2
v -0.1 0.2 0.1
v 0.1 0.2 0.1
v -0.1 0.2 0
v 0.1 0.2 0
v -0.2 0.1 0.1
v -0.1 0.1 0.1
v 0.1 0.1 0.1
v 0.2 0.1 0.1
v -0.2 0.1 0
v -0.1 0.1 0
v 0.1 0.1 0
v 0.2 0.1 0
v -0.3 0.3 0
v -0.2 0.3 0
v 0.2 0.3 0
v 0.3 0.3 0
v -0.3 0.3 -0.1
v -0.2 0.3 -0.1
v 0.2 0.3 -0.1
v 0.3 0.3 -0.1
v -0.1 0.4 0.1
v 0.1 0.4 0.1
v -0.1 0.4 0
v 0.1 0.4 0
v -0.2 0.6 0
v 0.2 0.6 0
v -0.2 0.6 -0.2
v 0.2 0.6 -0.2

# faces
f 3/2/1 2/2/1 1/2/1
f 4/2/1 2/2/1 3/2/1
f 8/7/1 6/7/1 5/7/1
f 9/6/1 7/6/1 6/6/1
f 9/7/1 6/7/1 8/7/1
f 10/6/1 7/6/1 9/6/1
f 13/4/1 11/4/1 10/4/1
f 14/4/1 11/4/1 13/4/1
f 15/3/1 13/3/1 12/3/1
f 15/3/1 14/3/1 13/3/1
f 16/3/1 14/3/1 15/3/1
f 17/1/1 16/1/1 15/1/1
f 18/3/1 14/3/1 16/3/1
f 18/1/1 16/1/1 17/1/1
f 19/3/1 18/3/1 17/3/1
f 20/3/1 14/3/1 18/3/1
f 20/3/1 18/3/1 19/3/1
f 23/6/1 22/6/1 21/6/1
f 24/6/1 23/6/1 21/6/1
f 25/6/1 23/6/1 24/6/1
f 29/7/1 27/7/1 26/7/1
f 30/6/1 28/6/1 27/6/1
f 30/7/1 27/7/1 29/7/1
f 31/6/1 28/6/1 30/6/1
f 32/7/2 33/7/2 35/7/2
f 33/6/2 34/6/2 36/6/2
f 35/7/2 33/7/2 36/7/2
f 36/6/2 34/6/2 37/6/2
f 38/6/2 39/6/2 40/6/2
f 38/6/2 40/6/2 41/6/2
f 41/6/2 40/6/2 42/6/2
f 43/7/2 44/7/2 46/7/2
f 44/6/2 45/6/2 47/6/2
f 46/7/2 44/7/2 47/7/2
f 47/6/2 45/6/2 48/6/2
f 48/4/2 49/4/2 51/4/2
f 51/4/2 49/4/2 52/4/2
f 50/3/2 51/3/2 53/3/2
f 51/3/2 52/3/2 53/3/2
f 53/3/2 52/3/2 54/3/2
f 53/1/2 54/1/2 55/1/2
f 54/3/2 52/3/2 56/3/2
f 55/1/2 54/1/2 56/1/2
f 55/3/2 56/3/2 57/3/2
f 56/3/2 52/3/2 58/3/2
f 57/3/2 56/3/2 58/3/2
f 59/2/2 60/2/2 61/2/2
f 61/2/2 60/2/2 62/2/2
f 65/7/3 64/7/3 63/7/3
f 66/7/3 64/7/3 65/7/3
f 71/6/3 68/6/3 67/6/3
f 72/6/3 68/6/3 71/6/3
f 73/7/3 70/7/3 69/7/3
f 74/7/3 70/7/3 73/7/3
f 77/2/3 76/2/3 75/2/3
f 78/2/3 76/2/3 77/2/3
f 82/4/3 78/4/3 77/4/3
f 83/4/3 78/4/3 82/4/3
f 84/3/3 79/3/3 78/3/3
f 84/4/3 78/4/3 83/4/3
f 85/1/3 80/1/3 79/1/3
f 85/3/3 79/3/3 84/3/3
f 86/3/3 81/3/3 80/3/3
f 86/1/3 80/1/3 85/1/3
f 87/5/3 83/5/3 82/5/3
f 88/5/3 83/5/3 87/5/3
f 90/3/3 86/3/3 85/3/3
f 91/3/3 81/3/3 86/3/3
f 91/3/3 86/3/3 90/3/3
f 92/4/3 89/4/3 88/4/3
f 92/4/3 88/4/3 87/4/3
f 93/3/3 90/3/3 89/3/3
f 93/4/3 89/4/3 92/4/3
f 94/1/3 91/1/3 90/1/3
f 94/3/3 90/3/3 93/3/3
f 95/3/3 81/3/3 91/3/3
f 95/1/3 91/1/3 94/1/3
f 96/3/3 81/3/3 95/3/3
f 97/2/3 93/2/3 92/2/3
f 98/2/3 93/2/3 97/2/3
f 99/2/4 100/2/4 102/2/4
f 102/2/4 100/2/4 103/2/4
f 101/6/4 102/6/4 104/6/4
f 104/6/4 102/6/4 105/6/4
f 106/6/4 107/6/4 108/6/4
f 108/6/4 107/6/4 109/6/4
f 109/2/4 110/2/4 111/2/4
f 111/2/4 110/2/4 112/2/4
f 113/4/4 114/4/4 116/4/4
f 114/3/4 115/3/4 117/3/4
f 116/4/4 114/4/4 117/4/4
f 117/3/4 115/3/4 118/3/4
f 123/7/5 120/7/5 119/7/5
f 124/7/5 120/7/5 123/7/5
f 125/7/5 122/7/5 121/7/5
f 126/7/5 122/7/5 125/7/5
f 127/6/5 124/6/5 123/6/5
f 128/6/5 124/6/5 127/6/5
f 129/6/5 126/6/5 125/6/5
f 130/6/5 126/6/5 129/6/5
f 137/2/5 132/2/5 131/2/5
f 138/2/5 132/2/5 137/2/5
f 139/5/5 134/5/5 133/5/5
f 140/5/5 134/5/5 139/5/5
f 141/2/5 136/2/5 135/2/5
f 142/2/5 136/2/5 141/2/5
f 143/4/5 140/4/5 139/4/5
f 143/4/5 141/4/5 140/4/5
f 143/4/5 139/4/5 138/4/5
f 144/4/5 141/4/5 143/4/5
f 147/6/5 146/6/5 145/6/5
f 148/6/5 146/6/5 147/6/5
f 149/7/6 150/7/6 153/7/6
f 153/7/6 150/7/6 154/7/6
f 151/7/6 152/7/6 155/7/6
f 155/7/6 152/7/6 156/7/6
f 157/2/6 158/2/6 161/2/6
f 161/2/6 158/2/6 162/2/6
f 159/2/6 160/2/6 163/2/6
f 163/2/6 160/2/6 164/2/6
f 165/6/6 166/6/6 167/6/6
f 167/6/6 166/6/6 168/6/6
f 169/3/6 170/3/6 171/3/6
f 171/3/6 170/3/6 172/3/6
